<svg xmlns="http://www.w3.org/2000/svg" xmlns:xlink="http://www.w3.org/1999/xlink" width="40" zoomAndPan="magnify" viewBox="0 0 30 30.000001" height="40" preserveAspectRatio="xMidYMid meet" version="1.0"><defs><clipPath id="4eb5caf1f1"><path d="M 3 2 L 26 2 L 26 28 L 3 28 Z M 3 2 " clip-rule="nonzero"/></clipPath><clipPath id="822c6ecdc0"><path d="M 5.242188 1.300781 L 28.207031 4.757812 L 24.75 27.726562 L 1.785156 24.269531 Z M 5.242188 1.300781 " clip-rule="nonzero"/></clipPath><clipPath id="e99cc9a331"><path d="M 5.242188 1.300781 L 28.207031 4.757812 L 24.75 27.726562 L 1.785156 24.269531 Z M 5.242188 1.300781 " clip-rule="nonzero"/></clipPath><clipPath id="46f1db6c56"><path d="M 5.242188 1.300781 L 28.207031 4.757812 L 24.75 27.726562 L 1.785156 24.269531 Z M 5.242188 1.300781 " clip-rule="nonzero"/></clipPath><clipPath id="4c7f65c131"><path d="M 9 6.175781 L 17.671875 6.175781 L 17.671875 17.789062 L 9 17.789062 Z M 9 6.175781 " clip-rule="nonzero"/></clipPath><clipPath id="e693feecfb"><path d="M 9 6.175781 L 17 6.175781 L 17 16 L 9 16 Z M 9 6.175781 " clip-rule="nonzero"/></clipPath></defs><g clip-path="url(#4eb5caf1f1)"><g clip-path="url(#822c6ecdc0)"><g clip-path="url(#e99cc9a331)"><g clip-path="url(#46f1db6c56)"><path fill="#000000" d="M 21.644531 26.890625 L 17.09375 20.726562 C 15.480469 21.46875 13.644531 21.765625 11.75 21.480469 C 6.589844 20.707031 3.046875 15.894531 3.820312 10.734375 C 4.597656 5.582031 9.398438 2.027344 14.5625 2.804688 C 19.714844 3.578125 23.265625 8.390625 22.492188 13.542969 C 22.21875 15.34375 21.460938 16.945312 20.367188 18.238281 L 24.949219 24.441406 C 25.191406 24.761719 24.847656 25.417969 24.191406 25.902344 L 23.265625 26.585938 C 22.605469 27.074219 21.878906 27.207031 21.644531 26.890625 Z M 19.386719 13.074219 C 19.90625 9.632812 17.539062 6.421875 14.09375 5.90625 C 10.648438 5.386719 7.433594 7.753906 6.914062 11.199219 C 6.394531 14.644531 8.773438 17.859375 12.214844 18.378906 C 15.660156 18.898438 18.871094 16.519531 19.386719 13.074219 Z M 19.386719 13.074219 " fill-opacity="1" fill-rule="nonzero"/></g></g></g></g><g clip-path="url(#4c7f65c131)"><path fill="#9f0000" d="M 16.039062 16.511719 C 15.191406 17.328125 14.1875 17.738281 13.027344 17.734375 C 12.257812 17.742188 11.550781 17.527344 10.910156 17.089844 C 10.222656 16.605469 9.71875 15.964844 9.40625 15.167969 C 9.011719 14.101562 8.945312 13.011719 9.199219 11.902344 C 9.398438 11.046875 9.773438 10.277344 10.316406 9.597656 C 10.433594 9.460938 10.578125 9.421875 10.746094 9.488281 C 10.910156 9.550781 10.996094 9.675781 10.996094 9.859375 C 10.996094 9.878906 11.035156 12.117188 12.15625 12.117188 C 12.394531 12.125 12.59375 12.039062 12.75 11.851562 C 13.003906 11.511719 13.027344 10.835938 12.8125 9.957031 C 12.269531 7.714844 13.371094 6.457031 13.417969 6.402344 C 13.53125 6.28125 13.660156 6.246094 13.816406 6.292969 C 13.96875 6.339844 14.058594 6.445312 14.085938 6.609375 C 14.242188 7.84375 14.78125 8.859375 15.703125 9.664062 C 15.804688 9.769531 15.910156 9.871094 16.007812 9.980469 C 16.539062 10.507812 16.925781 11.132812 17.160156 11.855469 C 17.289062 12.257812 17.359375 12.671875 17.375 13.097656 C 17.386719 13.519531 17.34375 13.9375 17.246094 14.347656 C 17.144531 14.761719 16.996094 15.148438 16.789062 15.519531 C 16.582031 15.886719 16.332031 16.214844 16.039062 16.511719 Z M 16.039062 16.511719 " fill-opacity="1" fill-rule="nonzero"/></g><g clip-path="url(#e693feecfb)"><path fill="#cf1020" d="M 16.007812 9.980469 C 15.800781 10.722656 15.488281 11.410156 15.066406 12.046875 C 14.644531 12.683594 14.136719 13.238281 13.542969 13.703125 C 12.945312 14.171875 12.296875 14.53125 11.589844 14.78125 C 10.878906 15.03125 10.152344 15.160156 9.40625 15.167969 C 9.011719 14.101562 8.945312 13.011719 9.199219 11.902344 C 9.398438 11.046875 9.773438 10.277344 10.316406 9.597656 C 10.433594 9.460938 10.578125 9.421875 10.746094 9.488281 C 10.910156 9.550781 10.996094 9.675781 10.996094 9.859375 C 10.996094 9.878906 11.035156 12.117188 12.15625 12.117188 C 12.394531 12.125 12.59375 12.039062 12.75 11.851562 C 13.003906 11.511719 13.027344 10.835938 12.8125 9.957031 C 12.269531 7.714844 13.371094 6.457031 13.417969 6.402344 C 13.53125 6.28125 13.660156 6.246094 13.816406 6.292969 C 13.96875 6.339844 14.058594 6.445312 14.085938 6.609375 C 14.242188 7.84375 14.78125 8.859375 15.703125 9.664062 C 15.804688 9.769531 15.910156 9.871094 16.007812 9.980469 Z M 16.007812 9.980469 " fill-opacity="1" fill-rule="nonzero"/></g></svg>